<svg width="140" height="116" viewBox="0 0 140 116" fill="none" xmlns="http://www.w3.org/2000/svg">
<path d="M91.5143 73.527C92.7508 73.527 93.7531 72.5294 93.7531 71.2989C93.7531 70.0684 92.7508 69.0708 91.5143 69.0708C90.2778 69.0708 89.2754 70.0684 89.2754 71.2989C89.2754 72.5294 90.2778 73.527 91.5143 73.527Z" fill="white"/>
<path d="M35.6119 86.1992C36.8484 86.1992 37.8508 85.2017 37.8508 83.9711C37.8508 82.7406 36.8484 81.743 35.6119 81.743C34.3754 81.743 33.373 82.7406 33.373 83.9711C33.373 85.2017 34.3754 86.1992 35.6119 86.1992Z" fill="white"/>
<path d="M51.2145 86.1992C52.451 86.1992 53.4533 85.2017 53.4533 83.9711C53.4533 82.7406 52.451 81.743 51.2145 81.743C49.978 81.743 48.9756 82.7406 48.9756 83.9711C48.9756 85.2017 49.978 86.1992 51.2145 86.1992Z" fill="white"/>
<path d="M106.067 73.527C107.304 73.527 108.306 72.5294 108.306 71.2989C108.306 70.0684 107.304 69.0708 106.067 69.0708C104.831 69.0708 103.828 70.0684 103.828 71.2989C103.828 72.5294 104.831 73.527 106.067 73.527Z" fill="white"/>
<path d="M126.217 89.4021C129.231 89.4021 131.674 87.4382 131.674 85.0156C131.674 82.593 129.231 80.629 126.217 80.629C123.203 80.629 120.76 82.593 120.76 85.0156C120.76 87.4382 123.203 89.4021 126.217 89.4021Z" fill="white"/>
<path d="M18.6105 116C17.6309 116 16.8613 115.234 16.8613 114.259V66.2161C16.8613 65.5198 17.2811 64.9628 17.8408 64.6146C18.4705 64.3361 19.1702 64.4057 19.6599 64.8235C24.0677 68.3745 29.455 72.2737 31.484 73.3181C43.7279 67.6782 51.3541 71.09 54.2226 72.97L59.4001 68.653C60.1697 68.0264 61.2192 68.1656 61.8488 68.8619C62.4785 69.6278 62.3386 70.6722 61.6389 71.2989L55.3421 76.521C54.6424 77.078 53.6629 77.078 53.0332 76.4514C52.7534 76.1728 45.8968 70.1152 32.2536 76.7299C31.8338 76.9387 31.4141 76.9387 30.9943 76.8691C29.0352 76.3121 23.8578 72.4826 20.2896 69.6974V114.19C20.3596 115.234 19.59 116 18.6105 116Z" fill="white"/>
<path d="M70.0346 112.17C69.125 112.17 68.3554 111.474 68.2854 110.569C68.0755 108.202 63.108 51.8727 75.7017 36.5546C76.1215 36.0672 76.7512 35.7887 77.3809 35.9279C78.1505 36.0672 79.8996 36.4153 85.7767 49.018L92.8431 48.4609L99.0001 39.4093C99.3499 38.8523 99.9796 38.5738 100.609 38.6434C101.239 38.7131 101.799 39.1308 102.079 39.6878L107.466 52.0816C109.215 53.2653 114.322 57.3733 115.862 67.6782C116.771 73.527 120.06 73.8055 125.727 73.7359C128.385 73.6662 131.184 73.6662 133.423 74.7803C136.781 76.4513 138.67 81.6734 137.761 86.9651C137.131 90.8643 134.053 100.055 119.22 102.074C102.009 104.372 91.5838 100.612 88.2954 90.7947C88.0156 89.8895 88.5053 88.9147 89.4149 88.5666C90.3244 88.2881 91.3039 88.7755 91.6537 89.6806C94.3824 97.7575 103.268 100.682 118.8 98.593C131.254 96.9219 133.843 89.4717 134.332 86.4081C135.032 82.3697 133.633 78.7491 131.884 77.8439C130.414 77.078 128.175 77.1476 125.797 77.1476C120.759 77.2172 113.763 77.3565 112.363 68.1656C110.824 57.8607 105.507 54.9363 105.227 54.7971C104.877 54.5882 104.597 54.3097 104.387 53.9615L100.05 44.0048L95.222 51.1068C94.9421 51.5246 94.4523 51.8031 93.8926 51.8727L84.7972 52.569C84.0975 52.6386 83.3979 52.2209 83.048 51.5942C81.089 47.4165 78.6403 42.6122 77.171 40.3841C73.113 46.9988 70.8741 60.4369 70.5943 79.6542C70.3844 95.6686 71.6437 110.082 71.7137 110.221C71.7837 111.196 71.084 112.031 70.1045 112.101C70.1045 112.17 70.0346 112.17 70.0346 112.17Z" fill="white"/>
<path d="M92.5633 110.987C90.2545 110.987 88.2255 110.151 86.6163 108.55C84.4474 106.391 84.3075 104.303 84.6573 102.98C85.7068 98.3145 93.1231 95.5294 93.9626 95.2509C94.8722 94.9028 95.8517 95.3902 96.2015 96.2953C96.5513 97.2005 96.0616 98.1753 95.152 98.5234C93.0531 99.2893 88.5753 101.587 88.0856 103.746C88.0156 104.024 87.8757 104.79 89.1351 106.113C90.2545 107.227 91.6538 107.645 93.4029 107.436C98.2305 106.809 103.618 101.657 104.597 99.9856C105.087 99.1501 106.137 98.8716 106.976 99.3589C107.816 99.8463 108.096 100.891 107.606 101.726C106.276 103.954 100.05 110.082 93.8227 110.917C93.4029 110.917 92.9831 110.987 92.5633 110.987Z" fill="white"/>
<path d="M60.3096 91.9784C59.4001 91.9784 58.6304 91.2821 58.5605 90.377C58.4905 89.4022 59.1902 88.5666 60.1697 88.497L79.2701 86.7563C80.2496 86.6867 81.0892 87.383 81.1592 88.3578C81.2291 89.3325 80.5295 90.1681 79.55 90.2377L60.4495 91.9784C60.4495 91.9784 60.3796 91.9784 60.3096 91.9784Z" fill="white"/>
<path d="M79.4801 99.9856H79.4101L60.2397 99.0108C59.2602 98.9412 58.5605 98.1753 58.5605 97.2005C58.6305 96.2257 59.4001 95.5294 60.3796 95.5294L79.5501 96.5042C80.5296 96.5738 81.2292 97.3397 81.2292 98.3145C81.1592 99.2197 80.3896 99.9856 79.4801 99.9856Z" fill="white"/>
<path d="M27.0067 91.9784C26.9367 91.9784 26.8668 91.9784 26.7968 91.9784L12.3141 90.2377C11.3345 90.0984 10.7049 89.2629 10.7748 88.2881C10.9148 87.3133 11.7543 86.6867 12.7338 86.7563L27.2166 88.497C28.1961 88.6363 28.8258 89.4718 28.7558 90.4466C28.6859 91.3517 27.9163 91.9784 27.0067 91.9784Z" fill="white"/>
<path d="M12.5235 99.9856C11.6139 99.9856 10.8443 99.2893 10.7743 98.3841C10.7044 97.4093 11.404 96.5738 12.3835 96.5042L26.9363 95.5294C27.9158 95.4598 28.7554 96.156 28.8253 97.1308C28.8953 98.1056 28.1956 98.9412 27.2161 99.0108L12.6634 99.9856C12.5934 99.9856 12.5934 99.9856 12.5235 99.9856Z" fill="white"/>
<path d="M37.8514 96.922C34.1433 96.922 31.1348 93.928 31.1348 90.2377C31.1348 89.2629 31.9044 88.497 32.8839 88.497C33.8634 88.497 34.633 89.2629 34.633 90.2377C34.633 91.9784 36.1023 93.4406 37.8514 93.4406C39.6005 93.4406 41.0698 91.9784 41.0698 90.2377C41.0698 89.2629 41.8394 88.497 42.8189 88.497C43.7984 88.497 44.568 89.2629 44.568 90.2377C44.568 93.928 41.5596 96.922 37.8514 96.922Z" fill="white"/>
<path d="M47.9959 96.922C44.2878 96.922 41.2793 93.928 41.2793 90.2377C41.2793 89.2629 42.0489 88.497 43.0284 88.497C44.0079 88.497 44.7775 89.2629 44.7775 90.2377C44.7775 91.9784 46.2468 93.4406 47.9959 93.4406C49.7451 93.4406 51.2143 91.9784 51.2143 90.2377C51.2143 89.2629 51.9839 88.497 52.9635 88.497C53.943 88.497 54.7126 89.2629 54.7126 90.2377C54.7126 93.928 51.7041 96.922 47.9959 96.922Z" fill="white"/>
<path d="M18.4708 115.93C17.981 115.93 17.4913 115.721 17.1414 115.304C6.08696 102.701 0 86.4778 0 69.6279C0 31.2629 31.4143 0 69.965 0C108.516 0 139.93 31.2629 139.93 69.6279C139.93 75.6158 139.16 81.5342 137.691 87.2437C137.481 88.1489 136.502 88.7059 135.592 88.497C134.683 88.2881 134.123 87.3133 134.333 86.4082C135.732 80.9772 136.502 75.3373 136.502 69.6975C136.502 33.2125 106.697 3.55102 70.035 3.55102C33.3033 3.48139 3.49825 33.1429 3.49825 69.6279C3.49825 85.5726 9.30535 101.03 19.8001 113.076C20.4298 113.772 20.3598 114.886 19.6602 115.513C19.3103 115.791 18.8906 115.93 18.4708 115.93Z" fill="white"/>
</svg>
