<svg width="24" height="24" viewBox="0 0 24 24" fill="none" xmlns="http://www.w3.org/2000/svg">
<path d="M19.375 7.5C18.8558 7.5 18.3483 7.65395 17.9166 7.94239C17.485 8.23083 17.1485 8.6408 16.9498 9.12046C16.7511 9.60011 16.6992 10.1279 16.8004 10.6371C16.9017 11.1463 17.1517 11.614 17.5188 11.9812C17.886 12.3483 18.3537 12.5983 18.8629 12.6996C19.3721 12.8008 19.8999 12.7489 20.3795 12.5502C20.8592 12.3515 21.2692 12.0151 21.5576 11.5834C21.846 11.1517 22 10.6442 22 10.125C21.9992 9.42904 21.7224 8.76181 21.2303 8.2697C20.7382 7.77758 20.071 7.50077 19.375 7.5ZM19.375 11.25C19.1525 11.25 18.935 11.184 18.75 11.0604C18.565 10.9368 18.4208 10.7611 18.3356 10.5555C18.2505 10.35 18.2282 10.1238 18.2716 9.90552C18.315 9.68729 18.4222 9.48684 18.5795 9.32951C18.7368 9.17217 18.9373 9.06503 19.1555 9.02162C19.3738 8.97821 19.6 9.00049 19.8055 9.08564C20.0111 9.17078 20.1868 9.31498 20.3104 9.49998C20.434 9.68499 20.5 9.9025 20.5 10.125C20.4997 10.4233 20.381 10.7092 20.1701 10.9201C19.9592 11.131 19.6733 11.2497 19.375 11.25ZM6.25 10.125C6.25 9.60582 6.09605 9.09831 5.80761 8.66663C5.51917 8.23495 5.1092 7.8985 4.62955 7.69982C4.14989 7.50114 3.62209 7.44915 3.11289 7.55044C2.60369 7.65173 2.13596 7.90173 1.76885 8.26885C1.40173 8.63596 1.15173 9.10369 1.05044 9.61289C0.949154 10.1221 1.00114 10.6499 1.19982 11.1295C1.3985 11.6092 1.73495 12.0192 2.16663 12.3076C2.59831 12.596 3.10583 12.75 3.625 12.75C4.32096 12.7492 4.98819 12.4724 5.48031 11.9803C5.97242 11.4882 6.24923 10.821 6.25 10.125ZM3.625 11.25C3.4025 11.25 3.18499 11.184 2.99998 11.0604C2.81498 10.9368 2.67079 10.7611 2.58564 10.5555C2.50049 10.35 2.47821 10.1238 2.52162 9.90552C2.56503 9.68729 2.67217 9.48684 2.82951 9.32951C2.98684 9.17217 3.1873 9.06503 3.40552 9.02162C3.62375 8.97821 3.84995 9.00049 4.05552 9.08564C4.26109 9.17078 4.43679 9.31498 4.5604 9.49998C4.68402 9.68499 4.75 9.9025 4.75 10.125C4.74968 10.4233 4.63105 10.7092 4.42014 10.9201C4.20923 11.131 3.92327 11.2497 3.625 11.25ZM8.125 8.25C8.64418 8.25 9.15169 8.09605 9.58337 7.80761C10.0151 7.51917 10.3515 7.1092 10.5502 6.62954C10.7489 6.14989 10.8008 5.62209 10.6996 5.11289C10.5983 4.60369 10.3483 4.13596 9.98116 3.76885C9.61404 3.40173 9.14631 3.15173 8.63711 3.05044C8.12791 2.94915 7.60011 3.00114 7.12046 3.19982C6.6408 3.3985 6.23083 3.73495 5.94239 4.16663C5.65395 4.59831 5.5 5.10583 5.5 5.625C5.50077 6.32096 5.77758 6.98819 6.2697 7.48031C6.76181 7.97242 7.42904 8.24923 8.125 8.25ZM8.125 4.5C8.34751 4.5 8.56501 4.56598 8.75002 4.6896C8.93502 4.81321 9.07922 4.98892 9.16437 5.19448C9.24951 5.40005 9.27179 5.62625 9.22838 5.84448C9.18498 6.06271 9.07783 6.26316 8.9205 6.4205C8.76316 6.57783 8.56271 6.68498 8.34448 6.72838C8.12625 6.77179 7.90005 6.74951 7.69448 6.66437C7.48892 6.57922 7.31321 6.43502 7.1896 6.25002C7.06598 6.06501 7 5.84751 7 5.625C7.00032 5.32673 7.11895 5.04077 7.32986 4.82986C7.54077 4.61895 7.82673 4.50032 8.125 4.5ZM14.875 8.25C15.3942 8.25 15.9017 8.09605 16.3334 7.80761C16.7651 7.51917 17.1015 7.1092 17.3002 6.62954C17.4989 6.14989 17.5508 5.62209 17.4496 5.11289C17.3483 4.60369 17.0983 4.13596 16.7312 3.76885C16.364 3.40173 15.8963 3.15173 15.3871 3.05044C14.8779 2.94915 14.3501 3.00114 13.8705 3.19982C13.3908 3.3985 12.9808 3.73495 12.6924 4.16663C12.404 4.59831 12.25 5.10583 12.25 5.625C12.2508 6.32096 12.5276 6.98819 13.0197 7.48031C13.5118 7.97242 14.179 8.24923 14.875 8.25ZM14.875 4.5C15.0975 4.5 15.315 4.56598 15.5 4.6896C15.685 4.81321 15.8292 4.98892 15.9144 5.19448C15.9995 5.40005 16.0218 5.62625 15.9784 5.84448C15.935 6.06271 15.8278 6.26316 15.6705 6.4205C15.5132 6.57783 15.3127 6.68498 15.0945 6.72838C14.8762 6.77179 14.6501 6.74951 14.4445 6.66437C14.2389 6.57922 14.0632 6.43502 13.9396 6.25002C13.816 6.06501 13.75 5.84751 13.75 5.625C13.7503 5.32673 13.869 5.04077 14.0799 4.82986C14.2908 4.61895 14.5767 4.50032 14.875 4.5ZM17.0399 13.9542C16.272 13.5293 15.7041 12.8171 15.4609 11.9738C15.2117 11.1161 14.6909 10.3625 13.9766 9.82622C13.2624 9.28992 12.3933 8.99996 11.5002 8.99991C10.607 8.99985 9.73795 9.28972 9.02364 9.82592C8.30933 10.3621 7.78837 11.1157 7.53906 11.9734C7.29689 12.8155 6.73043 13.5271 5.96406 13.952C5.11762 14.4107 4.47998 15.1774 4.18318 16.0932C3.88637 17.0091 3.95312 18.004 4.36961 18.872C4.7861 19.74 5.52043 20.4147 6.42057 20.7562C7.32071 21.0978 8.31772 21.0801 9.20519 20.7068C10.6719 20.1007 12.3188 20.0994 13.7864 20.7034C14.6733 21.0789 15.6707 21.0988 16.5719 20.759C17.4731 20.4192 18.209 19.7458 18.6273 18.8782C19.0455 18.0106 19.1139 17.0154 18.8184 16.0987C18.5229 15.182 17.8861 14.4142 17.0399 13.9542ZM15.25 19.5C14.9454 19.5004 14.6439 19.4388 14.3639 19.3191C12.5267 18.5611 10.464 18.5623 8.62769 19.3224C8.09455 19.548 7.495 19.5595 6.95363 19.3545C6.41225 19.1495 5.97069 18.7437 5.7207 18.2216C5.47071 17.6995 5.43153 17.1011 5.61129 16.5508C5.79104 16.0005 6.17592 15.5407 6.68594 15.2668C7.23833 14.9618 7.72521 14.5509 8.11876 14.0576C8.5123 13.5643 8.8048 12.9983 8.97953 12.392C9.13826 11.8463 9.46981 11.3668 9.92434 11.0257C10.3789 10.6845 10.9319 10.5001 11.5002 10.5001C12.0685 10.5002 12.6214 10.6846 13.076 11.0258C13.5305 11.367 13.862 11.8464 14.0207 12.3922C14.1953 12.9985 14.4878 13.5645 14.8813 14.0577C15.2748 14.551 15.7617 14.9619 16.3141 15.2669L16.3206 15.2706C16.7609 15.5089 17.1091 15.8872 17.3102 16.3456C17.5113 16.8041 17.5538 17.3165 17.431 17.8019C17.3081 18.2872 17.0269 18.7177 16.6319 19.0252C16.2369 19.3328 15.7506 19.4999 15.25 19.5Z" fill="#52575C"/>
</svg>
