<svg width="14" height="14" viewBox="0 0 14 14" fill="none" xmlns="http://www.w3.org/2000/svg">
<path d="M7.66668 6.33325H3.66668C3.48987 6.33325 3.3203 6.40349 3.19527 6.52851C3.07025 6.65354 3.00001 6.82311 3.00001 6.99992C3.00001 7.17673 3.07025 7.3463 3.19527 7.47132C3.3203 7.59635 3.48987 7.66659 3.66668 7.66659H7.66668C7.84349 7.66659 8.01306 7.59635 8.13808 7.47132C8.26311 7.3463 8.33334 7.17673 8.33334 6.99992C8.33334 6.82311 8.26311 6.65354 8.13808 6.52851C8.01306 6.40349 7.84349 6.33325 7.66668 6.33325ZM10.3333 3.66659H3.66668C3.48987 3.66659 3.3203 3.73682 3.19527 3.86185C3.07025 3.98687 3.00001 4.15644 3.00001 4.33325C3.00001 4.51006 3.07025 4.67963 3.19527 4.80466C3.3203 4.92968 3.48987 4.99992 3.66668 4.99992H10.3333C10.5102 4.99992 10.6797 4.92968 10.8047 4.80466C10.9298 4.67963 11 4.51006 11 4.33325C11 4.15644 10.9298 3.98687 10.8047 3.86185C10.6797 3.73682 10.5102 3.66659 10.3333 3.66659ZM11.6667 0.333252H2.33334C1.80291 0.333252 1.2942 0.543966 0.91913 0.919038C0.544057 1.29411 0.333344 1.80282 0.333344 2.33325V8.99992C0.333344 9.53035 0.544057 10.0391 0.91913 10.4141C1.2942 10.7892 1.80291 10.9999 2.33334 10.9999H10.06L12.5267 13.4733C12.589 13.535 12.6628 13.5839 12.7441 13.6171C12.8253 13.6503 12.9123 13.6671 13 13.6666C13.0875 13.6688 13.1742 13.6506 13.2533 13.6133C13.3751 13.5632 13.4793 13.4783 13.5529 13.3692C13.6264 13.26 13.666 13.1315 13.6667 12.9999V2.33325C13.6667 1.80282 13.456 1.29411 13.0809 0.919038C12.7058 0.543966 12.1971 0.333252 11.6667 0.333252ZM12.3333 11.3933L10.8067 9.85992C10.7444 9.79813 10.6705 9.74925 10.5893 9.71607C10.5081 9.68289 10.4211 9.66608 10.3333 9.66659H2.33334C2.15653 9.66659 1.98696 9.59635 1.86194 9.47132C1.73691 9.3463 1.66668 9.17673 1.66668 8.99992V2.33325C1.66668 2.15644 1.73691 1.98687 1.86194 1.86185C1.98696 1.73682 2.15653 1.66659 2.33334 1.66659H11.6667C11.8435 1.66659 12.0131 1.73682 12.1381 1.86185C12.2631 1.98687 12.3333 2.15644 12.3333 2.33325V11.3933Z" fill="white"/>
</svg>
