<svg width="16" height="16" viewBox="0 0 16 16" fill="none" xmlns="http://www.w3.org/2000/svg">
<path d="M8.66659 7.33337H4.66659C4.48977 7.33337 4.32021 7.40361 4.19518 7.52864C4.07016 7.65366 3.99992 7.82323 3.99992 8.00004C3.99992 8.17685 4.07016 8.34642 4.19518 8.47145C4.32021 8.59647 4.48977 8.66671 4.66659 8.66671H8.66659C8.8434 8.66671 9.01297 8.59647 9.13799 8.47145C9.26301 8.34642 9.33325 8.17685 9.33325 8.00004C9.33325 7.82323 9.26301 7.65366 9.13799 7.52864C9.01297 7.40361 8.8434 7.33337 8.66659 7.33337ZM11.3333 4.66671H4.66659C4.48977 4.66671 4.32021 4.73695 4.19518 4.86197C4.07016 4.98699 3.99992 5.15656 3.99992 5.33337C3.99992 5.51019 4.07016 5.67975 4.19518 5.80478C4.32021 5.9298 4.48977 6.00004 4.66659 6.00004H11.3333C11.5101 6.00004 11.6796 5.9298 11.8047 5.80478C11.9297 5.67975 11.9999 5.51019 11.9999 5.33337C11.9999 5.15656 11.9297 4.98699 11.8047 4.86197C11.6796 4.73695 11.5101 4.66671 11.3333 4.66671ZM12.6666 1.33337H3.33325C2.80282 1.33337 2.29411 1.54409 1.91904 1.91916C1.54397 2.29423 1.33325 2.80294 1.33325 3.33337V10C1.33325 10.5305 1.54397 11.0392 1.91904 11.4143C2.29411 11.7893 2.80282 12 3.33325 12H11.0599L13.5266 14.4734C13.5889 14.5352 13.6628 14.584 13.744 14.6172C13.8252 14.6504 13.9122 14.6672 13.9999 14.6667C14.0874 14.669 14.1741 14.6507 14.2533 14.6134C14.375 14.5634 14.4792 14.4784 14.5528 14.3693C14.6263 14.2601 14.6659 14.1317 14.6666 14V3.33337C14.6666 2.80294 14.4559 2.29423 14.0808 1.91916C13.7057 1.54409 13.197 1.33337 12.6666 1.33337ZM13.3333 12.3934L11.8066 10.86C11.7443 10.7983 11.6704 10.7494 11.5892 10.7162C11.508 10.683 11.421 10.6662 11.3333 10.6667H3.33325C3.15644 10.6667 2.98687 10.5965 2.86185 10.4714C2.73682 10.3464 2.66659 10.1769 2.66659 10V3.33337C2.66659 3.15656 2.73682 2.98699 2.86185 2.86197C2.98687 2.73695 3.15644 2.66671 3.33325 2.66671H12.6666C12.8434 2.66671 13.013 2.73695 13.138 2.86197C13.263 2.98699 13.3333 3.15656 13.3333 3.33337V12.3934Z" fill="white"/>
</svg>
