<svg width="21" height="18" viewBox="0 0 21 18" fill="none" xmlns="http://www.w3.org/2000/svg">
<path d="M19.16 1.99998C18.1 0.93719 16.6948 0.288522 15.1983 0.171152C13.7019 0.0537822 12.2128 0.475448 11 1.35998C9.72766 0.41362 8.14399 -0.0155064 6.56792 0.15902C4.99185 0.333546 3.54044 1.09876 2.50597 2.30057C1.47151 3.50237 0.930823 5.0515 0.992802 6.636C1.05478 8.22049 1.71482 9.72265 2.84 10.84L9.05 17.06C9.57002 17.5718 10.2704 17.8586 11 17.8586C11.7296 17.8586 12.43 17.5718 12.95 17.06L19.16 10.84C20.3276 9.66525 20.9829 8.07626 20.9829 6.41998C20.9829 4.76371 20.3276 3.17472 19.16 1.99998ZM17.75 9.45998L11.54 15.67C11.4693 15.7413 11.3852 15.798 11.2925 15.8366C11.1999 15.8753 11.1004 15.8952 11 15.8952C10.8996 15.8952 10.8001 15.8753 10.7075 15.8366C10.6148 15.798 10.5307 15.7413 10.46 15.67L4.25 9.42998C3.46576 8.62833 3.02661 7.55145 3.02661 6.42998C3.02661 5.30852 3.46576 4.23164 4.25 3.42998C5.04916 2.64097 6.12697 2.19855 7.25 2.19855C8.37303 2.19855 9.45085 2.64097 10.25 3.42998C10.343 3.52371 10.4536 3.59811 10.5754 3.64887C10.6973 3.69964 10.828 3.72578 10.96 3.72578C11.092 3.72578 11.2227 3.69964 11.3446 3.64887C11.4664 3.59811 11.577 3.52371 11.67 3.42998C12.4692 2.64097 13.547 2.19855 14.67 2.19855C15.793 2.19855 16.8708 2.64097 17.67 3.42998C18.465 4.22113 18.9186 5.29217 18.9335 6.41367C18.9485 7.53516 18.5236 8.61792 17.75 9.42998V9.45998Z" fill="#A0A4A8"/>
</svg>
