<svg width="30" height="30" viewBox="0 0 30 30" fill="none" xmlns="http://www.w3.org/2000/svg">
<path d="M24.9166 12.1666C24.5409 12.1666 24.1806 12.3159 23.9149 12.5816C23.6492 12.8473 23.5 13.2076 23.5 13.5833V18.3716L21.4033 16.275C20.663 15.5405 19.6624 15.1284 18.6196 15.1284C17.5767 15.1284 16.5761 15.5405 15.8358 16.275L14.8441 17.2808L11.3308 13.7533C10.5905 13.0188 9.58991 12.6067 8.54706 12.6067C7.50422 12.6067 6.50363 13.0188 5.76331 13.7533L3.66665 15.8641V7.91665C3.66665 7.54092 3.8159 7.18059 4.08158 6.91491C4.34726 6.64924 4.70759 6.49998 5.08331 6.49998H16.4166C16.7924 6.49998 17.1527 6.35072 17.4184 6.08505C17.6841 5.81937 17.8333 5.45904 17.8333 5.08331C17.8333 4.70759 17.6841 4.34726 17.4184 4.08158C17.1527 3.8159 16.7924 3.66665 16.4166 3.66665H5.08331C3.95614 3.66665 2.87514 4.11441 2.07811 4.91144C1.28108 5.70847 0.833313 6.78948 0.833313 7.91665V25.2283C0.837046 26.2717 1.25317 27.2712 1.99095 28.009C2.72872 28.7468 3.72828 29.1629 4.77165 29.1666H22.395C22.7789 29.1636 23.1604 29.1064 23.5283 28.9966C24.3463 28.7672 25.0665 28.2757 25.5783 27.5976C26.0901 26.9194 26.3653 26.0921 26.3616 25.2425V13.5833C26.3617 13.3949 26.3241 13.2083 26.2512 13.0346C26.1782 12.8608 26.0713 12.7034 25.9367 12.5714C25.8022 12.4395 25.6426 12.3357 25.4675 12.2662C25.2923 12.1967 25.1051 12.1629 24.9166 12.1666ZM5.08331 26.3333C4.70759 26.3333 4.34726 26.1841 4.08158 25.9184C3.8159 25.6527 3.66665 25.2924 3.66665 24.9166V19.8591L7.76081 15.765C7.96786 15.5591 8.24799 15.4435 8.53998 15.4435C8.83197 15.4435 9.1121 15.5591 9.31915 15.765L19.9016 26.3333H5.08331ZM23.5 24.9166C23.4909 25.191 23.4023 25.4567 23.245 25.6816L16.8416 19.25L17.8475 18.2583C17.949 18.1547 18.0703 18.0723 18.2041 18.0161C18.3379 17.9599 18.4815 17.9309 18.6266 17.9309C18.7718 17.9309 18.9154 17.9599 19.0492 18.0161C19.183 18.0723 19.3042 18.1547 19.4058 18.2583L23.5 22.3808V24.9166ZM27.75 3.66665H26.3333V2.24998C26.3333 1.87426 26.1841 1.51392 25.9184 1.24825C25.6527 0.982568 25.2924 0.833313 24.9166 0.833313C24.5409 0.833313 24.1806 0.982568 23.9149 1.24825C23.6492 1.51392 23.5 1.87426 23.5 2.24998V3.66665H22.0833C21.7076 3.66665 21.3473 3.8159 21.0816 4.08158C20.8159 4.34726 20.6666 4.70759 20.6666 5.08331C20.6666 5.45904 20.8159 5.81937 21.0816 6.08505C21.3473 6.35072 21.7076 6.49998 22.0833 6.49998H23.5V7.91665C23.5 8.29237 23.6492 8.6527 23.9149 8.91838C24.1806 9.18406 24.5409 9.33331 24.9166 9.33331C25.2924 9.33331 25.6527 9.18406 25.9184 8.91838C26.1841 8.6527 26.3333 8.29237 26.3333 7.91665V6.49998H27.75C28.1257 6.49998 28.486 6.35072 28.7517 6.08505C29.0174 5.81937 29.1666 5.45904 29.1666 5.08331C29.1666 4.70759 29.0174 4.34726 28.7517 4.08158C28.486 3.8159 28.1257 3.66665 27.75 3.66665Z" fill="white"/>
</svg>
