<svg width="20" height="20" viewBox="0 0 20 20" fill="none" xmlns="http://www.w3.org/2000/svg">
<path d="M15 8.91069H14C13.7348 8.91069 13.4804 9.02169 13.2929 9.21927C13.1054 9.41686 13 9.68484 13 9.96426C13 10.2437 13.1054 10.5117 13.2929 10.7092C13.4804 10.9068 13.7348 11.0178 14 11.0178H15C15.2652 11.0178 15.5196 10.9068 15.7071 10.7092C15.8946 10.5117 16 10.2437 16 9.96426C16 9.68484 15.8946 9.41686 15.7071 9.21927C15.5196 9.02169 15.2652 8.91069 15 8.91069ZM15 13.125H14C13.7348 13.125 13.4804 13.236 13.2929 13.4336C13.1054 13.6311 13 13.8991 13 14.1785C13 14.458 13.1054 14.726 13.2929 14.9235C13.4804 15.1211 13.7348 15.2321 14 15.2321H15C15.2652 15.2321 15.5196 15.1211 15.7071 14.9235C15.8946 14.726 16 14.458 16 14.1785C16 13.8991 15.8946 13.6311 15.7071 13.4336C15.5196 13.236 15.2652 13.125 15 13.125ZM9 6.80355H15C15.2652 6.80355 15.5196 6.69254 15.7071 6.49496C15.8946 6.29738 16 6.0294 16 5.74997C16 5.47055 15.8946 5.20257 15.7071 5.00499C15.5196 4.8074 15.2652 4.6964 15 4.6964H9C8.73478 4.6964 8.48043 4.8074 8.29289 5.00499C8.10536 5.20257 8 5.47055 8 5.74997C8 6.0294 8.10536 6.29738 8.29289 6.49496C8.48043 6.69254 8.73478 6.80355 9 6.80355ZM19 0.482117H5C4.73478 0.482117 4.48043 0.593118 4.29289 0.790701C4.10536 0.988284 4 1.25626 4 1.53569V4.6964H1C0.734784 4.6964 0.48043 4.8074 0.292893 5.00499C0.105357 5.20257 0 5.47055 0 5.74997V16.2857C0 17.124 0.316071 17.9279 0.87868 18.5207C1.44129 19.1134 2.20435 19.4464 3 19.4464H16C17.0609 19.4464 18.0783 19.0024 18.8284 18.2121C19.5786 17.4217 20 16.3498 20 15.2321V1.53569C20 1.25626 19.8946 0.988284 19.7071 0.790701C19.5196 0.593118 19.2652 0.482117 19 0.482117ZM4 16.2857C4 16.5651 3.89464 16.8331 3.70711 17.0307C3.51957 17.2283 3.26522 17.3393 3 17.3393C2.73478 17.3393 2.48043 17.2283 2.29289 17.0307C2.10536 16.8331 2 16.5651 2 16.2857V6.80355H4V16.2857ZM18 15.2321C18 15.791 17.7893 16.3269 17.4142 16.7221C17.0391 17.1173 16.5304 17.3393 16 17.3393H5.82C5.93642 17.0014 5.9973 16.6451 6 16.2857V2.58926H18V15.2321ZM9 11.0178H10C10.2652 11.0178 10.5196 10.9068 10.7071 10.7092C10.8946 10.5117 11 10.2437 11 9.96426C11 9.68484 10.8946 9.41686 10.7071 9.21927C10.5196 9.02169 10.2652 8.91069 10 8.91069H9C8.73478 8.91069 8.48043 9.02169 8.29289 9.21927C8.10536 9.41686 8 9.68484 8 9.96426C8 10.2437 8.10536 10.5117 8.29289 10.7092C8.48043 10.9068 8.73478 11.0178 9 11.0178ZM9 15.2321H10C10.2652 15.2321 10.5196 15.1211 10.7071 14.9235C10.8946 14.726 11 14.458 11 14.1785C11 13.8991 10.8946 13.6311 10.7071 13.4336C10.5196 13.236 10.2652 13.125 10 13.125H9C8.73478 13.125 8.48043 13.236 8.29289 13.4336C8.10536 13.6311 8 13.8991 8 14.1785C8 14.458 8.10536 14.726 8.29289 14.9235C8.48043 15.1211 8.73478 15.2321 9 15.2321Z" fill="#A0A4A8"/>
</svg>
