<svg width="20" height="21" viewBox="0 0 20 21" fill="none" xmlns="http://www.w3.org/2000/svg">
<path d="M16 13.75V3.39285C16 2.56878 15.6839 1.77847 15.1213 1.19577C14.5587 0.613064 13.7956 0.285706 13 0.285706H3C2.20435 0.285706 1.44129 0.613064 0.87868 1.19577C0.316071 1.77847 0 2.56878 0 3.39285V13.75C0 14.5741 0.316071 15.3644 0.87868 15.9471C1.44129 16.5298 2.20435 16.8571 3 16.8571H13C13.7956 16.8571 14.5587 16.5298 15.1213 15.9471C15.6839 15.3644 16 14.5741 16 13.75ZM2 3.39285C2 3.11816 2.10536 2.85472 2.29289 2.66049C2.48043 2.46625 2.73478 2.35713 3 2.35713H13C13.2652 2.35713 13.5196 2.46625 13.7071 2.66049C13.8946 2.85472 14 3.11816 14 3.39285V7.90856L12.92 6.77964C12.44 6.28237 11.7889 6.00295 11.11 6.00285C10.4315 6.00521 9.78125 6.28428 9.3 6.77964L8.39 7.72214L7.58 6.88321C7.03194 6.32468 6.29388 6.01166 5.525 6.01166C4.75612 6.01166 4.01806 6.32468 3.47 6.88321L2 8.41606V3.39285ZM2.12 14.2161C2.04289 14.0736 2.00162 13.9133 2 13.75V11.3368L4.88 8.35392C4.96456 8.26592 5.06507 8.1961 5.17576 8.14845C5.28645 8.10081 5.40513 8.07628 5.525 8.07628C5.64487 8.07628 5.76356 8.10081 5.87424 8.14845C5.98493 8.1961 6.08544 8.26592 6.17 8.35392L7 9.19285L2.12 14.2161ZM10.72 8.25035C10.7693 8.19418 10.8296 8.14946 10.8968 8.11911C10.964 8.08877 11.0367 8.07349 11.11 8.07428C11.1833 8.07349 11.256 8.08877 11.3232 8.11911C11.3904 8.14946 11.4507 8.19418 11.5 8.25035L14 10.8293V13.75C14 14.0247 13.8946 14.2881 13.7071 14.4824C13.5196 14.6766 13.2652 14.7857 13 14.7857H4.4L10.72 8.25035ZM19 4.42856C18.7348 4.42856 18.4804 4.53768 18.2929 4.73192C18.1054 4.92615 18 5.18959 18 5.46428V15.8214C18 16.6455 17.6839 17.4358 17.1213 18.0185C16.5587 18.6012 15.7956 18.9286 15 18.9286H5C4.73478 18.9286 4.48043 19.0377 4.29289 19.2319C4.10536 19.4262 4 19.6896 4 19.9643C4 20.239 4.10536 20.5024 4.29289 20.6966C4.48043 20.8909 4.73478 21 5 21H15C16.3261 21 17.5979 20.4544 18.5355 19.4832C19.4732 18.5121 20 17.1949 20 15.8214V5.46428C20 5.18959 19.8946 4.92615 19.7071 4.73192C19.5196 4.53768 19.2652 4.42856 19 4.42856Z" fill="#20A547"/>
</svg>
